<svg xmlns="http://www.w3.org/2000/svg" width="1600" height="420" viewBox="0 0 1600 420"><defs><linearGradient id="bg" x1="0" y1="0" x2="1" y2="1"><stop stop-color="#061121"/><stop offset="1" stop-color="#12052a"/></linearGradient><radialGradient id="glow"><stop stop-color="#22d3ee" stop-opacity=".72"/><stop offset="1" stop-color="#22d3ee" stop-opacity="0"/></radialGradient><filter id="blur"><feGaussianBlur stdDeviation="28"/></filter></defs><rect width="1600" height="420" fill="#05050a"/><rect width="1600" height="420" fill="url(#bg)" opacity=".42"/><circle cx="1230" cy="210" r="280" fill="url(#glow)" filter="url(#blur)"/><g opacity=".16" stroke="#22d3ee" fill="none"><path d="M0 42 H1600"/><path d="M100 0 V420"/><path d="M0 84 H1600"/><path d="M200 0 V420"/><path d="M0 126 H1600"/><path d="M300 0 V420"/><path d="M0 168 H1600"/><path d="M400 0 V420"/><path d="M0 210 H1600"/><path d="M500 0 V420"/><path d="M0 252 H1600"/><path d="M600 0 V420"/><path d="M0 294 H1600"/><path d="M700 0 V420"/><path d="M0 336 H1600"/><path d="M800 0 V420"/><path d="M0 378 H1600"/><path d="M900 0 V420"/></g><g transform="translate(1090 62)"><path d="M35 275 Q80 105 170 150 Q230 70 325 135 Q355 220 315 285 Z" fill="#22d3ee" opacity=".28"/><circle cx="225" cy="95" r="52" fill="#a855f7" opacity=".35"/></g><text x="1040" y="350" fill="white" opacity=".12" font-size="88" font-family="Arial,sans-serif" font-weight="800">FORTNITE</text></svg>